<svg xmlns="http://www.w3.org/2000/svg" viewBox="0 0 841.9 595.3">
  <g fill="#61DAFB">
    <path d="M666.3 296.5c0-32.5-40.7-63.3-103.1-82.4 14.4-63.6 8-114.2-20.2-130.4-6.5-3.8-14.1-6.9-22.4-9.1-44.9-12.5-87.2 11.8-114.9 42.1-22.5 24.5-35.8 55.9-42.9 90.4-4.7 22.2-8.1 45.1-8.1 69.3s3.4 47.2 8.1 69.3c7.1 34.5 20.4 65.9 42.9 90.4 27.7 30.3 70 54.6 114.9 42.1 8.3-2.2 15.9-5.3 22.4-9.1 28.3-16.2 34.8-66.8 20.2-130.4 62.5-19.1 103.1-49.9 103.1-82.4zM327.2 202.8c-22.9 24.9-36.7 57-43.9 91.8-4.9 23.2-8.4 47.4-8.4 72.5s3.5 49.3 8.4 72.5c7.3 34.8 21 66.9 43.9 91.8 28.3 30.7 70.8 55.5 116.8 42.7 8.7-2.3 16.8-5.6 24.5-9.6 29.7-16.9 36.4-69.2 20.7-135.3-64.4-19.5-106.7-50.5-106.7-83.3 0-32.7 42.3-63.7 106.7-83.3 15.7-66.1 9-118.4-20.7-135.3-7.7-4-15.8-7.3-24.5-9.6-46-12.8-88.5 11.9-116.8 42.7zm32.8 19.7c-27.9 30.4-44.7 69.4-53.2 112.5-5.7 28.8-9.8 58.6-9.8 89.6s4.1 60.8 9.8 89.6c8.5 43.1 25.3 82.1 53.2 112.5 34.3 37.4 86.3 67.4 142.9 52.7 10.7-2.8 20.7-7 30.2-12.4 38.6-22 47.3-80.4 23.3-167.5-74.9-22.7-124.1-58.6-124.1-96.8 0-38.2 49.2-74.1 124.1-96.8 24-87.1 15.3-145.5-23.3-167.5-9.5-5.4-19.5-9.6-30.2-12.4-56.6-14.7-108.6 15.3-142.9 52.7z" />
    <circle cx="420.9" cy="296.5" r="45.7" />
    <path d="M520.5 78.1z" />
  </g>
</svg>